<mxfile host="65bd71144e">
    <diagram id="HIP3nbAZw_EuaXWnEj3U" name="Page-1">
        <mxGraphModel dx="911" dy="645" grid="1" gridSize="10" guides="1" tooltips="1" connect="1" arrows="1" fold="1" page="1" pageScale="1" pageWidth="850" pageHeight="1100" math="0" shadow="0">
            <root>
                <mxCell id="0"/>
                <mxCell id="1" parent="0"/>
                <mxCell id="7" value="http://ics2o.mths.ca" style="swimlane;whiteSpace=wrap;html=1;" parent="1" vertex="1">
                    <mxGeometry x="40" y="40" width="760" height="480" as="geometry"/>
                </mxCell>
                <mxCell id="8" value="size of bag&amp;nbsp; &amp;nbsp; &amp;nbsp;&amp;gt;" style="text;html=1;align=center;verticalAlign=middle;resizable=0;points=[];autosize=1;strokeColor=none;fillColor=none;" vertex="1" parent="7">
                    <mxGeometry y="100" width="110" height="30" as="geometry"/>
                </mxCell>
                <mxCell id="9" value="submit&amp;nbsp;" style="whiteSpace=wrap;html=1;" vertex="1" parent="7">
                    <mxGeometry x="15" y="140" width="80" height="30" as="geometry"/>
                </mxCell>
                <mxCell id="10" value="please select the size of bag" style="text;html=1;align=center;verticalAlign=middle;resizable=0;points=[];autosize=1;strokeColor=none;fillColor=none;" vertex="1" parent="7">
                    <mxGeometry x="-5" y="70" width="170" height="30" as="geometry"/>
                </mxCell>
                <mxCell id="11" value="&lt;font style=&quot;font-size: 21px;&quot;&gt;welcome to the apple orchard&lt;/font&gt;" style="text;html=1;align=center;verticalAlign=middle;resizable=0;points=[];autosize=1;strokeColor=none;fillColor=none;" vertex="1" parent="7">
                    <mxGeometry x="190" y="30" width="300" height="40" as="geometry"/>
                </mxCell>
                <mxCell id="12" value="" style="shape=image;verticalLabelPosition=bottom;labelBackgroundColor=default;verticalAlign=top;aspect=fixed;imageAspect=0;image=data:image/png,iVBORw0KGgoAAAANSUhEUgAAAO8AAADTCAMAAABeFrRdAAABJlBMVEX///8AZjT9Ew39AAAAZDAAXSO1ybwAYy4AYSo9fVgAWxwAXyYAYiwAXSEAWBYAWx5Yi2yApY/b5N7z+Palvq9mknYAVxGpQCIoc0jk6uaTsZ7L2tGeuajU4NjD08lRh2Z2noWvxbf+0ND9RUP/8vL9WFb9amj+vbwpYTLr8e4AUQCOrpr/7Oz/4N/+sbD9YmD+oJ9DgFwwdk0AUwAWbD39UU/+h4b9LSr+d3b9PDn+ycn+nZz+rawASQD+09P+lJP+fHv9QD39HRn9MzDoIRNAYTWUSCXRLhlWWS6fRCSafWhMWSuLeF79KCRzUyvevbeuMABQSRInUhXJMxyCTym7HQCYMABvPwA5TA3p4d7Kr6aob1uCNgDQBwCZPBIAdUW4Ox+qopJf9nweAAAYcUlEQVR4nO1dCXvayJZFUQkJbSBAalYhYsduwBsEO4nj2E7Sr7vnvfGbnul5yyw9y///E1Pa75VUSIAAO9Onv+5OoCTqVN26W22Vyu/4HWwMW4euwV4xHHxSR0Z78v+FtT0zFVGyxp9Io2dPDl2b3aP5yV6InNJeElGpW6I5GB66RrvFRNf6HZHUBgpHQVRFlke9b7mfZSL1O2rdrnMhRGtsmdVvdUB3CBH687ppSBFhoaqpmjWqHrpqO4GjK4plm1Nbi/gqY9XtZk13moeuXfkYjseD0bTXqw2EkK9kNETvD+q0ah+6fmVj8lZazKrjwXjcIQFfsmwrYU9bo29tIHOESIJk9FtDK+xgrRpoL2k2UoT+oWtYLmZeX0ryot+2gh6WBjX/T2Q0k4g1OHQVS0VTD6RYN+2lr6RJZxwINHH/IDuHrmOpiMattLQd2fuLFmproepqMa1x6DqWibEukrCLDZtzu1g0DTXg63W0Mjp0JcuE2ZhzkiAIiqIKtIt1yl625UBhzb22UL6lHradXntcpf/0nJoydeylQnn6JpjUev5I1pxD17JEKBS0f9WFOXBZ92eWqAUdrFUDN0TuHbqW5aEqB+NXpLSV+Ww4oR6X38HUlw6+0w5dyxIxF7kYRJFJu6r4HUw9DhKM5Nq3Eya2dA6BCMtq01Q83zIwxUK13sl8dvISc0FVi0swlkfDuQZ8S2EsCEbqud7C0nVLa7y42NHREoQ5UW4PqGkKfUvX87BSyZ63xBsJYp28NMYjJUmYqzf6nBoKtMuXcImHurroeA4KdVVemoVeSCnCKtcfCYFv6XmWwgw/Y9c5MjMUxZUAJXt4P18sNCWAJEmqSIjba2PDchw15MtZXfSIGycrnXa7ZgmKqi0OVPFN0WsHGPRmhtlYcNQHmRrtT55lUjyxFrEj7Uie/Vr2WuOB4chpffa84ahLD53FqOEYg3a1Wh2bZtVL7/j9y+koweM715w6n7yVVOWl9W+lMnjrEiAUoip5PubSbPebtu72r6+X0CgNdJxQdUW+/gLtcJNLqmlRkZctQ+CUgR8ny8DwtAKrrU+oxNfHh6v2FjAsMcGYDtDuQlUd04+YlnHZpu93kxpV4eTlSbOPZk0nScJaf0HDCF+gAa8gllDapkoj5sNVeUvYHTnBmNT7Nc33O0QztsH+pBMnD4XEuH5psGt6wvuQ7cXYU9CqM4p60vF7nOtrnPYyR2+EpqPLmiKJUUfr9lD3+TbmYSE/jFQdKukvPzpu9attw+y4GQDJ5WUN534qz5mGTpbfGoK9JNJLczUy0R45gzH1OXoN6mopU7tGrSxpGPWQnB811/t1Tv9GZtbG3LQuSHODsh6Mpu5SANIZKIHwdnXfQFUVaKReOOyFLBJVETR3Vm2yFF1Huu77HP26P3xNUfmWplyosnbHL5EExekuCXWkg6hhrPnWV0yGTS8dw3ngdElK38vQWp6r7KemlZ7yso1vFoYjnzEhQ5k60kLb/dCLiznJUJVvKDcdotnwGJNlf2SoxDPBI68JlqaY1s5n5/evXdyfn+2/qiXBZyx27HEg0Mtgkhimtc5PH04+8BgfTh5OXyRtj7Fam0x99zFcwhQ6G7cPRz7BVxj+hycXL5Bzk45jaVS1xAZI0tepQ318d53BNMH63cP5oQmsjeFc18y2rkfRL0d959Pr1Vxjyk9Xx4dmkImz24uHm5PL6+ujN5cnNw8Xt7Ew9hdTozftB+4GxR8KkY0oX74+IK8MnF08fuYz8OHxIhBHW5k5szDa57gfC7MNKL87PSxDgNPHV6xxGGgdTx4HbaMSLtLifmJ2JaMheP7Ls2B8epIrmW4/X1HZbk2ChUwUGc3i4unr169fwr+k+/jQUn1+U3AY0mJHF5Uwu8FxP/PwK/6JWtvXZ7FWOj6/vXr/LsWZ598cUnO9flNc53i8bo6DRZbcP8RcL6/uGe8/vr35kmJ8t1eKALcf1mEb1PYPYPi6fX6VZ1zPHxKdzB8dpIvvP6/N1q3s9+HwpSzeXBSr+ekR+imev90xtzSOLzdhS+vKhcP3690a3XR/jRk/7I5ZJj5msk1b38TX9D8+XfGP6/qIt0+I8Jud0GLg/F0GW1fJvr+7Dzvt7Pz27uYIUuZPLqnyCRLTG2xoQW3MfyiV0Uo8pDuX8no8zZJPYJz5r/Tv9747aW3yu6iZ+ac9aa3jzxmR2w3LolSAtuFP6N+8yUEyZxdfhfeQ8Je9EL5Ndi7PX+e5eeeBmeZvAr7KLOcJFi4Q4Q1fsg4eUmzfF9E890c+4fd+tl3beFrwHiqE3Y/hk6TGPSmafjj1Ksp//pM3rZSxyPC+mHieQ8KXxWu+EY4SdD+vY1Vu3Jry/K+UsZj87vbxa9FXnUHCO7XDx9gM8fzFes+f+yaU/+G7f4Sfnrpm62aN18AxvENP6/gLprtBpPIYmib+6c3J4+PJ5ZHvo3xYy/u4h4R3p6QR3Q3DlEi7xw4Y/XdNOaG6IK7H9SbVKIKviO7ThmnS46QK4N+ty7aCrMSuwsM3iO4WivEj8q9XOSorcA0I70Sikd1dR7tk4P7q/fXR5+uTmy3mD6BbvlVlsnFfIt1ScAsIbyYiK4FCk1006NqIXekduFmPkO5T6a/fCKCDy07TniNpfiazObFR4t+V/GpoQ6jL/0wQ16pkL+sWde+zmbmKpY4/KvXFH2D37jtTtgJxsFbqGHuNunfdp1sY0WfxNxtX7Czm+7jxS9KAnhX/cd2njakeYGosrKm3QNT+ZMmVSuOt9/GnzTfcxWZj7W5g42yr7q0YlqaJHKdqmmU4quatOevK7uKNnuJ+qk0353sc8y3PJEFPcgPPalitVk1Rdej/mobk823pLt+2oDo2xRYbGCKno8R89CvYvZs5vD3FX3qV5Lv1CiygossyGyi43rAVAV8/URfy3XoBZRSklibQSJw3fGnMl4wcF6rPl9Qc02xvU7uriG9ZTj3MamyqBWO+HJHcbXecz5cTBWG61RbRs7I19FkZriTgK1gUesCXLBqj+Xb7v6PJjpJcDpTQ39RN3d34rXyM+F5t/S4X70sQ593pZ6ChSxrAX7bXziv4lrDAvdwBfAy7d2OJSfN1ZxhcfUWVl7XdnvbLqIPLWFgKQ8HNNcJM173FsI5ueRLcmirTSmVgeXtJp9ttEI0tUhlB8FUZw7fSHwy8TrQHA19f9Qa9VmU48LFdDV+XqrCAutpdJn8rRCOulMQLmMt/DlnYLET1KyPJUYIzuWvECmv7d4XCwpfnwJSOhxL5UmvOv/rpuz9zP5eaQigVF9Fk1PYG6Z9++bO//u97Pptvf1FLY2TOqplecauTUXreMMaMfZOo+IKxxuX2n78PkFUXv0IF6TbCvQbucsdM9VyVSQruxkFN7wzSdrVrpUvT8pIgEyNjb10LFa8zAsfzfwnrmPVyF4pZjO4QHH/0Q7a6b6fPzwl/XLFSu3ubMrO0ZDVSjCfovCmZIQTHOuulIYq6rR2wH//X7MTzgMnX/R0t4SoO6ytKi1ZSYHHzMJfkJQ+lSqFe7KzTMazdd9nz6LNVfDlOd1BpO3V8FIJWSzQP5EsSX67BVy/msSIq/5ptfo308UiYAjrvqbqaLyctUc36sDh773uePKfOo8qGgfj+zGfulHBy+HIC1BVtIae0inZ8o+YRWGHUJI+vWOiMrW5CTLJn0RupY1WSkIGyWDnaPUiwbmPYPDJrc3SXqQQDFMsqjBJMst2rUfJQlTSs2BTnjHYXOuhG1Dx1VkWHeXwLLda0k1LyW6b3AlV4eLpq4kEgTmi0i4JbPFmakPjlPcCXvYK4j5S+lMbbIhlBLtlxf8nkC6urOuN2u91r6IlejLfpm0BmyMgtPXCUxJgGR65A5cBeQYxG+dJIwylAd5DSLH/NmrBAuiIaYQaWjVizwkYUQl5jDTUt2NW/AF8kTXkMKDRqQU8qiVZ6TPwtiy8yqPEIw4OBhKth0fmcsbs0IYhwLA6weNYKYh9z8LSy4WSFmRxWHPf3LL4zxghrI0OrdzNaR45LN1HzRB2PFJHErCtqxM3uNWlmuCx61viFShyNsCXsslAWof4RobuErHgk/tA3Z9tQ5HRutA0ED5yIb5ZAwVGO1D4yJaG/3gBSI8HWQX61GlJD6oppQ6GR3vC0tGqWRcsSFWTqUYMgBmHPw17ERhHKZOQoQ1vHtqFQXW143pKU5URk+XPQFEDDSXUQGns+3wlb/6CDlYNOahVTV1AWmT7nSmR7QVkGkG0KEN/gUaSuVPQi2MCh3oN+xAqXP9MiroOJBX8ngphh2timAGmR4CvYjom3wdLhVwN2cQCkxJUN6MIQQAXucdbpPlCN4/GN+jLQz0iZo5QDEt1wEEKbyM5QQHVVLBBKoB//NpmPQRvrqaIrTAHSz4FrAUvjlAPSbkIgKFC42BkKB7bKJtOrQCtaTdhNempwrDAFKE70W6oLO3FV6/iCgtUVM0PRKdQqbADPiBpC2INa6m0rTAEyML4CQsoctw6y94HjBZuaffBbwVZhogUkiwau8HVp35Ttz7cz3A126yB/MhyE0BlTHVZ94UjY5Dg84NMobp1AI6eNOWpbJO0oAggCfnh7ATaUSPjDhoPOGDsMgCNBctamC5M4nnIHw0NMZunZ/jxKfYXPMVsHu3OhTYHOGDsMgEqc1BpJjHIOfAQGVfPaFDZ9cpMj0xRUUbyj++MeKXMBlMb5p1DHTtjaDQLFJURNIiczacc/HQwGOOiS6oBlCsYougrdYdQ6QFSaCvJewxNWbbZ2A2itzj3nGShg8oITyOH4SE5oMEyBg7MbVvCUkR3tDPAxytEkEXTG2GFAf9WEBUoVZqEXd4EYOLHQiCRSKtgUBB9OegrOSEe3ayBlHrROa7zEGfg4KobOmMA8RXh1gjfnlABIIOwVqJMS0oEng/zkWyeZq1MjUYStowzc0kZNFxKRmBYNGZQKYWqd1elvds7Lgxn3TKTaodpIJMNw23o3MKipI77FkADOEvv3NaTCzvjmEaTE5AoL6bQTV+g5r0Zg7MeqCfxuQm1k5LiSIEI0gHKnUly6cVCPnDGmWK6eSmF7KR7AAAOSCxU+Pp16mZUVQBBJrC+c3NYhgC52xpip59XzjfrK5B2Y/YSpCqg3UJIhxxRQCAtgwDp5rSNJcJTOma4qBPQ56dhxLa6oisF/pdXuJTQ84Adgv6D4I8cU0O6CViSvdYiMbxyFL08HZiGguiJzM4GVZ8MDFxCNU9iEyC7kmAJ5gZRqTusIEu7DZrGsBZo/XOuscOg4U+sYbwcbs+z+KlMgysuEDK5qHSIIST+I5YwlKl3M58wCmv3U9BjI84dOMpOuKFijVPaUqcyJoi/SgsdwxhJYEVHnIDX7mV034H5nmQJvZZHeaGeE3anpRlcrqkrdqvWyRueiUOp5BtOjzjp8822LByAzyBRIviwsR6yVY0hdEb80N3cGrATM+jNlbJ8zA4OcdSQhgE7ooXGdt80TRTu1St6mUOiM4Tw+AtSB66irjNnPbADRggM+f8HAoFC0EwGpK2bqGc/mFCVbKbDIJgRIA0OJYBvIEA1mLie7QoVSz9UNZ8qyZj+zESsFZAqEFS/3AbVzAckrlmRFPqfDKpVGLXdNUdSKUXgKTQHbQIbAyx7yawQ7wGIO9dpm6ipz9pOBaJTMCi0lCWEXinYiFEyyopCxuLoS4aRYBiBf+d+Ch+aFDGSIYsmZCO1CqedmsRB5VV3EVEKTAhJW/j14CvnzueubkDLPV1dmodTzZhP7cPZTyFSFUHmQ//A/6643C1loXWAM6IyxU89QiRef2AfdxxgqyPX9T/+zaiF/PgRS5vlXWrWKhQGLTdQVmP1k3RWHguq/+6uCjbXUVbHkTFwnqK7Ygoomn4uqKyCsrJqg9Xrqo/dZbT11td6SEjyx321mYoLSo0W9K7gujHUbEV5V/5P3GXNdTiaKJWciwFWWNJTOxKf+H1GEWc8qNE31BJz+c1i/j9yvv94nm4C98i0E8uvz1RXJD9bI4vhv+YVSs0dwGMpMPwbFrn9yt20gU8DcVxCiuZ5fn7tenXOl5CF/KXUqUdDNtUUekAUm7ulm0BTkKyCozNnLtiPkbOrwfpOrvMpvlNTsEZiBXrWnAe/J+O0cmwJ2vJb5fL709wr03ODuL7mF1ORqHTvfFnlA2wi4/3rAIzo/kQKVeYG9IvlbIqj3yP+YXyhJicu3RR7wxNjPT4mJ/VwDg9au5Dt++d0rGaf8z3mFUi0LZj+j6cBMtLAC4c/xapS8RU9IXeWP9gLqypp84XMLJesFWeREy7jFf3tA+ZDczXloOOQvgcvbk+VqjFP+h1y+SW3V0IUQGjum9lCTBSHm/OPTf2tCjGme62rqoLSer90sIQdvh0/8/wSNzSwkJ7z61rgaI2ddWt+9cf2X7wL8yv8veLQ6znMgbFg676eSxTNx6u7BdvHLmFkmt1p5iE/kPfgJlKWfAZUFeMb0Dn+mAK5KPVGFCcB3gxOqd1CRHR+QcRML9Oed/lAOyjyPYRXAyV+HPJoiPk9l1/dcxedurn+cJ3PCaO0lvOEJN7s/lvl1nsZqGcTSl156Z7HsdDqjILc4cRTLUp1Jpc0tfbO4XHKeYZp0PnmEB1yns6wZroswpn/sLBcmw6GPz/fa/U118XUTmbI0lBVJE4gg0Wo3JKJoqubtT69akqppkjS1+7Lq+5M1Vfb4zjR/9b4tE1GTlLeUZF8mxN0nq2enAcNDkPdxyHh8ll2WME0sUjfttkjEpRsDqs6AIwp1H/tvOa1hV03d6nblwH82VX9aSCR+ADGUyWI8ktzJk67MLXuzhswJWa5nZBX3ciwzODwoLU1z0VshPqlz9THlK1TdqltuGOZ9XrFNGjpgvu56XG9yceh9USPa2D1b1t0JU6XPZvhiEd29mMS7uINTZ9l1rSB3YSjiyOU7duNkfULlM8prJ/maquSnc32+hkSDmoAvDYMzopjoPpI9ncW1wiSNhSD26deJ6vOlkaBM6ceRGeW7qI7H4+qcuHxblmSIXpzq8+0QGqOHfKtaOla+349nFSM+3i11w8ZMCSJ/KsU65SvNbI5oBu3DOEFNG4B40QvxpnXbgj4xVXfGhPKtDamOUysR32E9vZLhVdi9e7tikn3LA+Rbd3NWkkbc3OVIxHy9zLDo8e1Qbd3XXLEd0i/qqjdZFPGVUxmK8PzyPV7GB1R04hKAthBMJFF57rh8FdEb0I6E5Lk26Xa7k4ZI+TZ1jlpp4i4PcPkKnOKG0iHfsZCcmLrbq24OEN96mDgPcKgHKWxHoh3t6mdTdVOEYy3UV5MJtkeGRCTFbRWb8hUbts4pk5jvnCRSxPHg3edtmvDeEqw0lkRykxe016yJf7KmQNzDVXTO+7zSlKqYr0Y6juM0RNoqLt+KqYiLiG9PS+wPOdtTWJQE8KLxgYD2lFPm4xmtZy84SdS23BXrY4uTlrPeSNccyHdoa/4sJjVaLY9vhRDF8fwN0+xoJHFQcqSryr1rIRcwTMIS3Z5KqqBIU9egGprbtaYmaS33HFFRUZT6stm1JF8HmYJujxT/ZFFTqM+alkQ7tW+pb6sTS1WpP6klph3fHWLwerhjGuGus7Q400vtDhoNd/Q1zAZV2l2jY6kN2l3dkenb6Bn9utHwJ477tFC34X3Ra5ijZsNdu+wksoDxMc87uPwnB0Ci93HDo4uj/fqRCfAr3Mqd4OhAuioAuB5oL9epxHR3fZ8kA+CQ8z2cshpdV7Nv1RzjBhDedZ4hSnyXfq3TGjhhO9IlIz4Od1/KMRPXeyIc03112IumwB1fO3Ror58LXUx4Q6t4lschVlX7ubx6JcA9UJvZxdMc3R5fbexddX5wwMPdP69of0by5SSnkU5jus/k6PiPgPAqmb7J6Mi7vGlVcIHkoSdgI7yGd0tfs5No7xNX/B5/5HNI3Mf38pR0M0opgNf58vwjU6jveP7yzr+R/Oz24xHP5ziij7Es72HiZB1cwS5mX05/9o5HWGnCLkBEskoxHATHbxDjD3cZYn1+ha91Xtm5pyBH9pyud4xw+xUx5t/dXJxHvXJ2e3XiX9Qd48uK/PHdF9C5T8/0DoTTr+iCYA9fPh8dvQsvJU+ACn7mqLx9D0o/z84N8PoyxSuTKfjy/QXqvfOLEx7JyZs9TZpsiOOrD6sIvoquoOfB3z+f3Dx8/Phwc/kVtw7VA89LLWfizOuiJOuQ5tfLm7vT29enN3i08+lHKNt95tS3wtnpx5MjZHrevXl8uLgHwnn8kCPpl/tPQm6L47NzF6wI6PQ6m7IrBlfPzeKWguO7y9Ropjrq6nkrqe1wfnHz5imS+puLZ2ptf8ezx/8BVkrzpOSILXEAAAAASUVORK5CYII=;" vertex="1" parent="7">
                    <mxGeometry x="510" y="70" width="239" height="211" as="geometry"/>
                </mxCell>
            </root>
        </mxGraphModel>
    </diagram>
</mxfile>